<svg version="1.1" xmlns="http://www.w3.org/2000/svg" xmlns:xlink="http://www.w3.org/1999/xlink" focusable="false" fill="currentColor" aria-hidden="true" width="1em" height="1em" viewBox="0 0 1000 1000">
<g><g transform="translate(0.000000,511.000000) scale(0.100000,-0.100000)"><path d="M828.8,4688.8c-311.7-86-580.4-344-687.9-653.5c-34.4-101-40.8-182.7-40.8-571.8c0-490.2,17.2-610.5,116.1-804c28-55.9,88.1-141.9,131.1-193.5C416,2386.4,1637.1,1419,1701.6,1395.3c27.9-10.8,382.7,436.4,367.6,462.2c-6.5,8.6-301,242.9-655.7,518.1c-455.8,352.6-655.7,520.2-679.3,569.7c-25.8,55.9-32.3,156.9-32.3,503c0,488,15.1,554.6,133.3,619.1c68.8,36.5,249.4,38.7,4166.3,38.7c3916.9,0,4097.5-2.1,4166.3-38.7c118.2-64.5,133.3-131.1,133.3-617c0-318.2-8.6-449.3-30.1-503c-23.6-58-333.2-290.2-1724.1-1292C6613.8,984.7,5829.2,415,5805.5,389.2c-45.2-43-51.6-131.1-189.2-2055.2c-79.5-1105-148.3-2035.8-154.8-2065.9c-6.5-32.2-34.4-79.5-64.5-107.5c-53.7-49.5-66.7-51.6-395.6-51.6c-331.1,0-341.8,2.1-395.6,51.6c-30.1,27.9-60.2,81.7-66.6,118.2c-4.3,36.5-34.4,423.5-66.6,862.1c-30.1,436.4-58,797.6-62.3,804c-12.9,10.8-571.8-36.5-584.7-49.4c-21.5-19.3,103.2-1657.5,133.3-1765c62.3-223.6,266.6-436.4,539.6-565.4c122.5-55.9,137.6-58,505.2-58h376.2l167.7,81.7c199.9,101,371.9,262.3,451.5,432.1c70.9,148.3,66.6,111.8,217.1,2237.9C6282.8-806,6340.8-23.5,6345.1,2.3c6.4,32.2,507.3,404.2,1584.4,1180.2c866.3,623.4,1623.1,1180.2,1679,1234c118.2,113.9,236.5,333.2,273,507.4c15,75.2,21.5,294.5,17.2,595.5l-6.4,479.4l-73.1,148.3c-103.2,202.1-277.3,374.1-488,477.3l-167.7,83.8l-4116.8,4.3C1761.8,4714.6,908.3,4710.3,828.8,4688.8z"/><path d="M2449.7,1021.3c-133.3-79.5-135.4-94.6-135.4-881.4v-709.4h-700.8c-767.5,0-801.9-4.3-890-129c-92.4-129-75.2-285.9,45.1-399.9l64.5-62.3l735.2-10.8l735.2-10.7l10.7-737.4l10.8-739.5l79.5-70.9c43-40.8,105.3-79.5,135.4-88.1c77.4-19.3,191.3,6.5,258,60.2c113.9,88.1,118.2,129,118.2,887.9v698.7h715.9c670.7,0,718,2.1,782.5,43c133.3,79.5,180.6,273,98.9,408.5c-21.5,36.6-77.4,83.8-124.7,107.5c-83.8,40.8-135.4,43-780.4,43h-692.2v700.8c0,672.9-2.1,705.1-45.1,782.5c-23.6,43-73.1,94.6-105.3,113.9C2684,1077.1,2535.7,1075,2449.7,1021.3z"/></g></g>
</svg>
