<svg version="1.1" xmlns="http://www.w3.org/2000/svg" xmlns:xlink="http://www.w3.org/1999/xlink" focusable="false" fill="currentColor" aria-hidden="true" width="1em" height="1em" viewBox="0 0 24 24">
<path d="M6.38007 18.0246C6.09179 18.0246 5.8686 17.9276 5.71051 17.7337C5.56172 17.5283 5.48732 17.2488 5.48732 16.8951V7.6542H2.76721C2.52542 7.6542 2.33478 7.57434 2.19529 7.41462C2.0651 7.24349 2 7.01532 2 6.73011C2 6.43348 2.0651 6.21102 2.19529 6.06271C2.33478 5.90299 2.52542 5.82313 2.76721 5.82313H9.99294C10.2347 5.82313 10.4207 5.90299 10.5509 6.06271C10.6904 6.21102 10.7601 6.43348 10.7601 6.73011C10.7601 7.01532 10.6904 7.24349 10.5509 7.41462C10.4207 7.57434 10.2347 7.6542 9.99294 7.6542H7.27283V16.8951C7.27283 17.2488 7.19843 17.5283 7.04964 17.7337C6.90085 17.9276 6.67766 18.0246 6.38007 18.0246Z" />
<path d="M11.2385 18.3839C11.1827 18.6007 11.0943 18.7547 10.9734 18.846C10.8525 18.9487 10.7177 19 10.5689 19C10.4294 19 10.2992 18.9544 10.1783 18.8631C10.0574 18.7718 9.97372 18.6406 9.92722 18.4695C9.87143 18.3098 9.87143 18.1158 9.92722 17.8877L13.1495 5.61777C13.2053 5.40101 13.2937 5.24129 13.4145 5.13861C13.5447 5.03594 13.6796 4.9903 13.8191 5.00171C13.9586 5.00171 14.0888 5.04735 14.2097 5.13861C14.3305 5.22988 14.4142 5.35538 14.4607 5.5151C14.5165 5.67482 14.5165 5.86876 14.4607 6.09693L11.2385 18.3839Z" />
<path d="M16.3784 18.0246C16.0902 18.0246 15.8623 17.9276 15.6949 17.7337C15.5368 17.5283 15.4578 17.2374 15.4578 16.8609V6.9868C15.4578 6.61032 15.5368 6.3251 15.6949 6.13116C15.8623 5.9258 16.0995 5.82313 16.4063 5.82313H21.2746C21.5164 5.82313 21.6978 5.89728 21.8187 6.04559C21.9396 6.1939 22 6.40496 22 6.67877C22 6.96398 21.9396 7.18645 21.8187 7.34617C21.6978 7.49448 21.5164 7.56863 21.2746 7.56863H17.2433V10.9741H20.9817C21.2142 10.9741 21.3909 11.0482 21.5118 11.1966C21.642 11.3449 21.7071 11.5559 21.7071 11.8297C21.7071 12.1149 21.642 12.3374 21.5118 12.4971C21.3909 12.6454 21.2142 12.7196 20.9817 12.7196H17.2433V16.8609C17.2433 17.6367 16.955 18.0246 16.3784 18.0246Z" />
</svg>
