<svg version="1.1" xmlns="http://www.w3.org/2000/svg" xmlns:xlink="http://www.w3.org/1999/xlink" focusable="false" fill="currentColor" aria-hidden="true" width="1em" height="1em" viewBox="0 0 1000 1000">
<g><path d="M316.2,806.2c16.9,0,30.6-13.7,30.6-30.6V438.7c0-16.9-13.7-30.6-30.6-30.6c-16.9,0-30.6,13.7-30.6,30.6v336.9C285.6,792.6,299.3,806.2,316.2,806.2z M500,806.2c16.9,0,30.6-13.7,30.6-30.6V438.7c0-16.9-13.7-30.6-30.6-30.6c-16.9,0-30.6,13.7-30.6,30.6v336.9C469.4,792.6,483.1,806.2,500,806.2z M683.8,806.2c16.9,0,30.6-13.7,30.6-30.6V438.7c0-16.9-13.7-30.6-30.6-30.6c-16.9,0-30.6,13.7-30.6,30.6v336.9C653.1,792.6,666.8,806.2,683.8,806.2z M836.9,101.9H710C696.3,49.2,648.8,10,591.9,10H408.1c-56.9,0-104.5,39.2-118.2,91.9H163.1c-67.6,0-122.5,55-122.5,122.5V255h30.6v30.6h61.2v581.9C132.5,935,187.4,990,255,990h490c67.6,0,122.5-55,122.5-122.5V285.6h61.2V255h30.6v-30.6C959.4,156.8,904.4,101.9,836.9,101.9z M408.1,71.3h183.8c22.5,0,42.1,12.4,52.7,30.6H355.4C366,83.7,385.6,71.3,408.1,71.3z M806.2,867.5c0,33.8-27.5,61.3-61.2,61.3H255c-33.8,0-65.5-27.5-65.5-61.3l4.2-581.9h612.5V867.5L806.2,867.5z M101.9,224.4c0-33.8,27.5-61.3,61.3-61.3h673.7c33.8,0,61.3,27.5,61.3,61.3H101.9z"/></g>
</svg>
