<svg version="1.1" xmlns="http://www.w3.org/2000/svg" xmlns:xlink="http://www.w3.org/1999/xlink" fill="currentColor" aria-hidden="true" width="1em" height="1em" viewBox="-100 -100 1200 1200">
<g>
  <path d="M908.3,892.6c0,8.7-7,15.7-15.7,15.7H107.4c-8.7,0-15.7-7-15.7-15.7V107.4c0-8.7,7-15.7,15.7-15.7h311V10H25.7C17,10,10,17,10,25.7v948.6c0,8.7,7,15.7,15.7,15.7h948.6c8.7,0,15.7-7,15.7-15.7V581.7h-81.7V892.6L908.3,892.6z"/>
  <path d="M974.3,10H581.7C573,10,566,17,566,25.7l178.7,171.8L297,645.2l57.7,57.7l448.8-448.8l170.7,164.2c8.7,0,15.7-7,15.7-15.7V25.7C990,17,982.9,10,974.3,10L974.3,10z"/>
</g>
</svg>
