<svg xmlns="http://www.w3.org/2000/svg" xmlns:xlink="http://www.w3.org/1999/xlink" focusable="false" fill="currentColor" aria-hidden="true" width="1em" height="1em" viewBox="0 0 30 30" version="1.1">
  <path d="M3.5,3 L8.5,3 C8.77614237,3 9,3.22385763 9,3.5 L9,8.5 C9,8.77614237 8.77614237,9 8.5,9 L3.5,9 C3.22385763,9 3,8.77614237 3,8.5 L3,3.5 C3,3.22385763 3.22385763,3 3.5,3 Z M3.5,12 L8.5,12 C8.77614237,12 9,12.2238576 9,12.5 L9,17.5 C9,17.7761424 8.77614237,18 8.5,18 L3.5,18 C3.22385763,18 3,17.7761424 3,17.5 L3,12.5 C3,12.2238576 3.22385763,12 3.5,12 Z M3.5,21 L8.5,21 C8.77614237,21 9,21.2238576 9,21.5 L9,26.5 C9,26.7761424 8.77614237,27 8.5,27 L3.5,27 C3.22385763,27 3,26.7761424 3,26.5 L3,21.5 C3,21.2238576 3.22385763,21 3.5,21 Z M12.5,3 L17.5,3 C17.7761424,3 18,3.22385763 18,3.5 L18,8.5 C18,8.77614237 17.7761424,9 17.5,9 L12.5,9 C12.2238576,9 12,8.77614237 12,8.5 L12,3.5 C12,3.22385763 12.2238576,3 12.5,3 Z M12.5,12 L17.5,12 C17.7761424,12 18,12.2238576 18,12.5 L18,17.5 C18,17.7761424 17.7761424,18 17.5,18 L12.5,18 C12.2238576,18 12,17.7761424 12,17.5 L12,12.5 C12,12.2238576 12.2238576,12 12.5,12 Z" id="Combined-Shape"/>
  <rect id="Rectangle-Copy-17" opacity="0.699999988" x="21" y="3" width="6" height="6" rx="0.5"/>
</svg>
